PathFileType	4	(X/Y/Z)	D:\TRACE\v60_Jaco2_6-2-23\BothDRS_Motion2_10-platform.trc
DataRate	CameraRate	NumFrames	NumMarkers	Units	OrigDataRate	OrigDataStartFrame	OrigNumFrames
100.00	100.00	      53	5	mm	100.00	2813	      7500
Frame#	Time	Left_Front			Right_Front			Left_Aft			Right_Aft			Post			
		X1	Y1	Z1	X2	Y2	Z2	X3	Y3	Z3	X4	Y4	Z4	X5	Y5	Z5	

2813	28.120	-844.23041	-13.00990	-643.33453	725.61707	-11.99182	-648.92139	-751.97552	23.14756	491.27759	690.32941	22.88853	500.40741	-57.97499	1274.27393	-1014.15021	
2814	28.130	-844.88654	-14.45707	-643.63062	724.98273	-13.52949	-649.24762	-752.81903	23.95964	490.89655	689.66815	23.80204	500.06265	-58.71092	1272.39563	-1017.50189	
2815	28.140	-845.30835	-15.05401	-643.91833	724.11682	-14.54332	-649.52094	-753.58972	24.74695	490.72284	688.80206	24.59921	499.79324	-59.49774	1270.22815	-1020.30414	
2816	28.150	-846.24225	-16.61123	-644.26855	723.58691	-15.69859	-649.79248	-754.19330	25.84755	490.36060	688.10657	25.71772	499.50082	-59.96663	1268.09436	-1022.96069	
2817	28.160	-846.92261	-18.31940	-644.61829	722.92004	-17.65220	-650.14056	-754.78339	26.74055	489.79092	687.67023	26.74495	499.04684	-60.51569	1266.11609	-1025.38977	
2818	28.170	-847.68457	-19.42188	-645.08960	722.19543	-18.52079	-650.29529	-755.43011	27.66225	489.44257	686.89856	27.52636	498.60834	-61.28297	1264.09851	-1027.84937	
2819	28.180	-848.10211	-20.88417	-645.21271	721.72406	-20.15386	-650.87201	-756.15302	28.80570	488.85474	686.46741	28.53386	498.16837	-61.80954	1261.85315	-1030.61438	
2820	28.190	-848.87634	-22.21165	-645.32898	721.30853	-21.31219	-651.05829	-756.97552	29.58717	488.51865	685.72491	29.35233	497.98828	-62.34405	1259.55176	-1032.87695	
2821	28.200	-849.11566	-23.56251	-645.54248	720.79449	-22.89787	-651.30591	-757.61694	30.72477	488.31888	685.40704	30.48540	497.67578	-62.78865	1257.57410	-1034.74707	
2822	28.210	-849.46124	-24.94122	-645.81152	720.48389	-24.09959	-651.43103	-757.29706	31.13243	487.97244	685.01013	31.24554	497.35745	-63.46409	1255.91016	-1036.78308	
2823	28.220	-849.85938	-25.85636	-646.00873	720.07544	-24.75553	-651.60107	-757.55426	32.03096	487.11584	684.63354	31.99767	496.84448	-63.57460	1253.93665	-1039.21326	
2824	28.230	-850.19458	-27.10873	-646.44196	719.72162	-26.18119	-651.85834	-758.04498	32.75397	486.99670	683.15662	32.18591	495.92078	-64.11946	1252.26501	-1041.22559	
2825	28.240	-850.81458	-28.29112	-646.47052	719.45929	-27.63084	-652.06445	-758.25616	33.07151	486.65189	684.51221	34.17271	497.28897	-64.56622	1250.37109	-1042.65686	
2826	28.250	-850.98932	-29.55987	-646.65833	719.06842	-28.65311	-652.13763	-758.81592	33.96251	486.46402	683.78510	34.64074	496.30716	-64.79076	1248.55884	-1044.47620	
2827	28.260	-851.06042	-30.37797	-646.80981	718.93372	-29.37156	-652.40009	-758.88110	34.69099	486.14697	683.47107	35.19358	495.92923	-64.90913	1247.02698	-1046.45923	
2828	28.270	-851.22577	-31.44169	-646.96460	718.68964	-30.27707	-652.60742	-759.07404	35.61154	485.89764	683.57709	36.15599	495.75754	-65.16519	1245.64954	-1048.50525	
2829	28.280	-851.41528	-32.16612	-647.26563	718.70062	-31.40802	-652.79205	-759.16913	36.29161	485.60834	683.36133	36.66626	495.35141	-65.75185	1244.15649	-1050.05188	
2830	28.290	-851.12018	-34.11408	-647.45007	718.65479	-32.18480	-653.01324	-759.29810	36.82934	485.42099	682.77203	37.23167	495.12183	-65.70110	1242.46655	-1052.04651	
2831	28.300	-851.09198	-34.85881	-647.60498	718.56409	-33.37442	-653.25360	-759.51434	37.37220	485.17462	682.96625	37.66734	494.62537	-65.68684	1241.07751	-1053.88770	
2832	28.310	-851.27502	-35.66075	-647.61572	718.54108	-34.25367	-653.29712	-759.67810	38.25457	484.85300	682.88959	38.39349	494.48923	-65.59798	1239.45593	-1056.01563	
2833	28.320	-851.28577	-36.29454	-647.74591	718.59399	-35.15564	-653.52997	-759.55756	39.09586	484.71759	683.11707	39.19535	494.19922	-65.63190	1238.06262	-1058.01538	
2834	28.330	-851.36810	-37.19950	-647.71307	718.66553	-35.83418	-653.52533	-759.80646	39.90237	484.59631	683.04108	39.84307	494.00552	-65.93491	1236.79993	-1060.02954	
2835	28.340	-851.15558	-38.27322	-648.18536	718.69214	-37.05222	-653.84265	-758.99500	39.73047	483.93753	683.02454	40.39541	493.68417	-65.63671	1234.96765	-1061.82483	
2836	28.350	-851.02734	-39.36954	-648.39679	718.55090	-37.90755	-653.90582	-759.19312	40.48981	483.56659	682.96588	41.05422	493.49457	-65.54183	1233.49670	-1063.93896	
2837	28.360	-850.84686	-40.17107	-648.58270	718.90887	-39.02399	-654.02753	-759.13385	41.09169	483.47012	682.98889	41.81189	493.39093	-65.31451	1232.02148	-1065.97388	
2838	28.370	-850.60657	-41.26783	-648.74249	719.27386	-40.08819	-654.27954	-758.87396	42.09355	483.26074	683.77570	42.34200	492.77664	-65.12092	1230.31494	-1068.06897	
2839	28.380	-850.34247	-41.87959	-649.08435	719.56409	-40.57975	-654.26544	-758.84644	42.92958	482.75006	684.31946	43.26553	492.72781	-64.93303	1229.14014	-1069.85571	
2840	28.390	-849.93195	-42.69062	-648.90039	720.08234	-41.44477	-654.39905	-758.53912	43.79342	482.65698	684.67694	43.93874	492.38950	-64.20332	1227.56274	-1071.91382	
2841	28.400	-849.75592	-43.61830	-649.13391	720.25867	-42.40525	-654.60333	-757.76288	43.66101	482.24994	684.91663	44.38441	492.16888	-63.94449	1226.10791	-1073.89709	
2842	28.410	-849.53271	-44.55636	-649.24707	720.55603	-43.39782	-654.84375	-757.43274	44.06478	481.91455	684.72430	44.79359	492.05304	-63.58090	1224.78186	-1075.88098	
2843	28.420	-848.93494	-45.32729	-649.28693	720.96198	-44.06485	-654.87048	-756.90015	44.05139	481.97510	685.27380	45.21195	491.65332	-63.71355	1223.44568	-1077.53418	
2844	28.430	-848.32013	-46.08047	-649.43634	721.22986	-44.62799	-654.98920	-756.18127	44.58509	481.74246	685.81995	45.91510	491.42932	-63.27924	1222.29529	-1079.32617	
2845	28.440	-847.98718	-46.67104	-649.50629	721.55103	-45.15482	-655.13885	-755.89880	45.02769	481.55072	686.33771	46.37480	491.19241	-62.50166	1221.28528	-1081.24329	
2846	28.450	-847.84851	-47.13432	-649.70081	722.03528	-45.94756	-655.23792	-755.73584	45.72507	481.42926	686.76556	46.64339	490.95880	-62.05614	1220.13403	-1083.08691	
2847	28.460	-847.39130	-47.76469	-649.91388	722.60669	-46.69283	-655.35791	-755.25806	46.04530	481.29245	687.09479	46.94555	490.79352	-61.70592	1219.07788	-1084.88928	
2848	28.470	-846.96057	-48.32087	-650.09650	723.06750	-47.30761	-655.53827	-754.72760	46.33310	480.93576	687.37671	47.34172	490.68082	-61.31184	1218.14453	-1086.59998	
2849	28.480	-846.31024	-49.01552	-649.96417	723.61279	-47.73823	-655.56659	-754.39142	46.81034	480.72824	688.01379	47.98007	490.50882	-60.66998	1217.40271	-1087.87427	
2850	28.490	-845.78967	-49.42960	-649.92462	723.86957	-48.05239	-655.60834	-753.48590	47.02724	480.87277	688.55078	48.29287	490.43503	-60.14042	1216.47925	-1089.58044	
2851	28.500	-845.23517	-49.85783	-650.03406	724.53253	-48.44307	-655.59082	-753.19592	47.32250	480.77133	689.03754	48.43050	490.26843	-59.55199	1215.63757	-1091.09558	
2852	28.510	-844.86469	-50.29499	-650.20007	724.96301	-48.78183	-655.68805	-752.93445	47.54214	480.69226	689.53339	48.63313	490.12970	-59.19981	1214.97339	-1092.72327	
2853	28.520	-844.30469	-50.75655	-650.42950	725.47363	-48.89649	-655.80768	-752.12616	47.80105	480.75311	690.05011	49.01432	490.03726	-58.32234	1214.11719	-1093.99475	
2854	28.530	-843.78436	-51.22932	-650.48889	725.94824	-49.25381	-656.04059	-751.45343	48.04496	480.57394	690.60706	49.39660	489.81888	-57.96843	1213.53162	-1095.43921	
2855	28.540	-843.09222	-51.82575	-650.47375	727.02521	-50.44976	-656.02368	-750.82922	48.41766	480.43814	691.47113	49.72256	489.72723	-57.42586	1212.98474	-1096.81104	
2856	28.550	-842.30316	-52.18303	-650.57916	727.51624	-50.64120	-655.97382	-750.28052	48.58139	480.32864	692.30994	50.11597	489.67502	-56.55284	1212.28247	-1098.22974	
2857	28.560	-841.92505	-52.36651	-650.53973	727.79156	-50.70459	-655.96075	-749.81329	48.83358	480.29947	692.61688	50.13047	489.65247	-55.79938	1211.68701	-1099.35132	
2858	28.570	-841.37085	-52.64150	-650.56036	728.29700	-50.80360	-656.01141	-749.00958	48.70817	480.21448	692.60175	49.95270	489.00397	-55.15484	1211.12146	-1100.81006	
2859	28.580	-840.88843	-52.75126	-650.65900	729.17194	-51.15705	-655.98413	-748.56091	49.07936	480.09003	693.82831	50.36389	489.54437	-54.73486	1210.87488	-1101.71594	
2860	28.590	-840.13525	-53.09351	-650.54712	730.02661	-51.28018	-656.11664	-748.68195	50.33270	480.00772	694.96631	50.75323	489.62628	-54.44678	1210.76611	-1103.08386	
2861	28.600	-839.28033	-53.14977	-650.49353	730.69330	-51.13310	-656.18555	-747.63629	50.05041	480.08148	695.62628	50.77064	489.55740	-53.20642	1210.51526	-1104.32178	
2862	28.610	-838.38867	-53.12224	-650.53046	731.38788	-51.25577	-656.09070	-746.80304	49.79810	480.11664	696.06549	50.71444	489.57700	-51.84539	1210.10522	-1105.55176	
2863	28.620	-837.83148	-52.92662	-650.54285	731.98206	-51.36710	-656.13715	-746.03552	49.53384	480.06503	696.74097	50.58345	489.56854	-51.71833	1210.08252	-1106.21338	
2864	28.630	-837.23889	-52.85619	-650.56140	732.85675	-51.22752	-655.97327	-745.31329	49.62682	479.88013	697.50092	50.52625	489.52158	-50.57504	1209.84229	-1107.82227	
2865	28.640	-836.45972	-52.98938	-650.67664	733.69995	-50.95290	-656.10577	-744.48035	49.58587	479.91821	698.16949	50.56655	489.49905	-50.46600	1210.30786	-1108.46509	
